<svg xmlns="http://www.w3.org/2000/svg" width="640" height="220" viewBox="0 0 640 220" role="img" aria-label="Traffic history for AcTePuKc/Kokoro-Local-Gui">
  <title>Traffic history for AcTePuKc/Kokoro-Local-Gui</title>
  <style>
    .panel { fill: #18181b; stroke: #3f3f46; }
    .title { fill: #fafafa; }
    .axis { fill: #a1a1aa; font: 10px Inter,ui-sans-serif,system-ui,sans-serif; }
    .grid { stroke: #3f3f46; stroke-width: 1; opacity: .65; }
    @media (prefers-color-scheme: light) {
      .panel { fill: #ffffff; stroke: #d4d4d8; }
      .title { fill: #18181b; }
      .axis { fill: #71717a; }
      .grid { stroke: #d4d4d8; }
    }
  </style>
  <rect class="panel" x="0.5" y="0.5" width="639" height="219" rx="10" stroke-width="1"/>
  <text class="title" x="16" y="24" font-family="Inter,ui-sans-serif,system-ui,sans-serif" font-size="13" font-weight="600">AcTePuKc/Kokoro-Local-Gui traffic</text>
  <circle cx="486" cy="20" r="3" fill="#22c55e"/><text class="axis" x="494" y="23">clones</text>
  <circle cx="554" cy="20" r="3" fill="#60a5fa"/><text class="axis" x="562" y="23">views</text>
  <line class="grid" x1="42" y1="42.00" x2="624" y2="42.00"/><text class="axis" x="35" y="46.00" text-anchor="end">67</text><line class="grid" x1="42" y1="79.00" x2="624" y2="79.00"/><text class="axis" x="35" y="83.00" text-anchor="end">50</text><line class="grid" x1="42" y1="116.00" x2="624" y2="116.00"/><text class="axis" x="35" y="120.00" text-anchor="end">34</text><line class="grid" x1="42" y1="153.00" x2="624" y2="153.00"/><text class="axis" x="35" y="157.00" text-anchor="end">17</text><line class="grid" x1="42" y1="190.00" x2="624" y2="190.00"/><text class="axis" x="35" y="194.00" text-anchor="end">0</text>
  <polyline points="42.00,181.16 63.56,183.37 85.11,185.58 106.67,176.75 128.22,185.58 149.78,183.37 171.33,183.37 192.89,185.58 214.44,183.37 236.00,187.79 257.56,187.79 279.11,183.37 300.67,187.79 322.22,187.79 343.78,156.87 365.33,183.37 386.89,183.37 408.44,190.00 430.00,178.96 451.56,187.79 473.11,187.79 494.67,185.58 516.22,181.16 537.78,187.79 559.33,178.96 580.89,185.58 602.44,178.96 624.00,176.75" fill="none" stroke="#22c55e" stroke-width="2.5" stroke-linecap="round" stroke-linejoin="round"/>
  <polyline points="42.00,42.00 63.56,101.64 85.11,101.64 106.67,128.15 128.22,143.61 149.78,79.55 171.33,161.28 192.89,125.94 214.44,139.19 236.00,108.27 257.56,101.64 279.11,99.43 300.67,136.99 322.22,128.15 343.78,128.15 365.33,143.61 386.89,132.57 408.44,165.70 430.00,170.12 451.56,154.66 473.11,125.94 494.67,121.52 516.22,106.06 537.78,108.27 559.33,110.48 580.89,112.69 602.44,112.69 624.00,125.94" fill="none" stroke="#60a5fa" stroke-width="2.5" stroke-linecap="round" stroke-linejoin="round"/>
  <text class="axis" x="42" y="212">2026-08-18</text><text class="axis" x="624" y="212" text-anchor="end">2026-09-14</text>
</svg>
