<svg xmlns="http://www.w3.org/2000/svg" width="640" height="220" viewBox="0 0 640 220" role="img" aria-label="Traffic history for AcTePuKc/LocresStudio">
  <title>Traffic history for AcTePuKc/LocresStudio</title>
  <style>
    .panel { fill: #18181b; stroke: #3f3f46; }
    .title { fill: #fafafa; }
    .axis { fill: #a1a1aa; font: 10px Inter,ui-sans-serif,system-ui,sans-serif; }
    .grid { stroke: #3f3f46; stroke-width: 1; opacity: .65; }
    @media (prefers-color-scheme: light) {
      .panel { fill: #ffffff; stroke: #d4d4d8; }
      .title { fill: #18181b; }
      .axis { fill: #71717a; }
      .grid { stroke: #d4d4d8; }
    }
  </style>
  <rect class="panel" x="0.5" y="0.5" width="639" height="219" rx="10" stroke-width="1"/>
  <text class="title" x="16" y="24" font-family="Inter,ui-sans-serif,system-ui,sans-serif" font-size="13" font-weight="600">AcTePuKc/LocresStudio traffic</text>
  <circle cx="486" cy="20" r="3" fill="#22c55e"/><text class="axis" x="494" y="23">clones</text>
  <circle cx="554" cy="20" r="3" fill="#60a5fa"/><text class="axis" x="562" y="23">views</text>
  <line class="grid" x1="42" y1="42.00" x2="624" y2="42.00"/><text class="axis" x="35" y="46.00" text-anchor="end">41</text><line class="grid" x1="42" y1="79.00" x2="624" y2="79.00"/><text class="axis" x="35" y="83.00" text-anchor="end">31</text><line class="grid" x1="42" y1="116.00" x2="624" y2="116.00"/><text class="axis" x="35" y="120.00" text-anchor="end">20</text><line class="grid" x1="42" y1="153.00" x2="624" y2="153.00"/><text class="axis" x="35" y="157.00" text-anchor="end">10</text><line class="grid" x1="42" y1="190.00" x2="624" y2="190.00"/><text class="axis" x="35" y="194.00" text-anchor="end">0</text>
  <polyline points="42.00,190.00 58.63,190.00 75.26,190.00 91.89,182.78 108.51,190.00 125.14,190.00 141.77,190.00 158.40,190.00 175.03,190.00 191.66,186.39 208.29,186.39 224.91,179.17 241.54,190.00 258.17,171.95 274.80,186.39 291.43,190.00 308.06,190.00 324.69,190.00 341.31,186.39 357.94,190.00 374.57,182.78 391.20,186.39 407.83,190.00 424.46,186.39 441.09,182.78 457.71,186.39 474.34,186.39 490.97,175.56 507.60,182.78 524.23,186.39 540.86,190.00 557.49,186.39 574.11,190.00 590.74,182.78 607.37,190.00 624.00,190.00" fill="none" stroke="#22c55e" stroke-width="2.5" stroke-linecap="round" stroke-linejoin="round"/>
  <polyline points="42.00,106.98 58.63,42.00 75.26,63.66 91.89,103.37 108.51,128.63 125.14,139.46 141.77,150.29 158.40,161.12 175.03,106.98 191.66,128.63 208.29,110.59 224.91,81.71 241.54,114.20 258.17,92.54 274.80,121.41 291.43,150.29 308.06,70.88 324.69,114.20 341.31,153.90 357.94,70.88 374.57,67.27 391.20,114.20 407.83,88.93 424.46,85.32 441.09,106.98 457.71,74.49 474.34,96.15 490.97,52.83 507.60,52.83 524.23,74.49 540.86,96.15 557.49,74.49 574.11,103.37 590.74,110.59 607.37,74.49 624.00,139.46" fill="none" stroke="#60a5fa" stroke-width="2.5" stroke-linecap="round" stroke-linejoin="round"/>
  <text class="axis" x="42" y="212">2026-08-17</text><text class="axis" x="624" y="212" text-anchor="end">2026-09-21</text>
</svg>
