<svg xmlns="http://www.w3.org/2000/svg" width="640" height="220" viewBox="0 0 640 220" role="img" aria-label="Traffic history for AcTePuKc/LocresStudio">
  <title>Traffic history for AcTePuKc/LocresStudio</title>
  <style>
    .panel { fill: #18181b; stroke: #3f3f46; }
    .title { fill: #fafafa; }
    .axis { fill: #a1a1aa; font: 10px Inter,ui-sans-serif,system-ui,sans-serif; }
    .grid { stroke: #3f3f46; stroke-width: 1; opacity: .65; }
    @media (prefers-color-scheme: light) {
      .panel { fill: #ffffff; stroke: #d4d4d8; }
      .title { fill: #18181b; }
      .axis { fill: #71717a; }
      .grid { stroke: #d4d4d8; }
    }
  </style>
  <rect class="panel" x="0.5" y="0.5" width="639" height="219" rx="10" stroke-width="1"/>
  <text class="title" x="16" y="24" font-family="Inter,ui-sans-serif,system-ui,sans-serif" font-size="13" font-weight="600">AcTePuKc/LocresStudio traffic</text>
  <circle cx="486" cy="20" r="3" fill="#22c55e"/><text class="axis" x="494" y="23">clones</text>
  <circle cx="554" cy="20" r="3" fill="#60a5fa"/><text class="axis" x="562" y="23">views</text>
  <line class="grid" x1="42" y1="42.00" x2="624" y2="42.00"/><text class="axis" x="35" y="46.00" text-anchor="end">42</text><line class="grid" x1="42" y1="79.00" x2="624" y2="79.00"/><text class="axis" x="35" y="83.00" text-anchor="end">32</text><line class="grid" x1="42" y1="116.00" x2="624" y2="116.00"/><text class="axis" x="35" y="120.00" text-anchor="end">21</text><line class="grid" x1="42" y1="153.00" x2="624" y2="153.00"/><text class="axis" x="35" y="157.00" text-anchor="end">10</text><line class="grid" x1="42" y1="190.00" x2="624" y2="190.00"/><text class="axis" x="35" y="194.00" text-anchor="end">0</text>
  <polyline points="42.00,190.00 55.53,190.00 69.07,190.00 82.60,182.95 96.14,190.00 109.67,190.00 123.21,190.00 136.74,190.00 150.28,190.00 163.81,186.48 177.35,186.48 190.88,179.43 204.42,190.00 217.95,172.38 231.49,186.48 245.02,190.00 258.56,190.00 272.09,190.00 285.63,186.48 299.16,190.00 312.70,182.95 326.23,186.48 339.77,190.00 353.30,186.48 366.84,182.95 380.37,186.48 393.91,186.48 407.44,175.90 420.98,182.95 434.51,186.48 448.05,190.00 461.58,186.48 475.12,190.00 488.65,182.95 502.19,190.00 515.72,190.00 529.26,186.48 542.79,182.95 556.33,186.48 569.86,190.00 583.40,186.48 596.93,190.00 610.47,190.00 624.00,186.48" fill="none" stroke="#22c55e" stroke-width="2.5" stroke-linecap="round" stroke-linejoin="round"/>
  <polyline points="42.00,108.95 55.53,45.52 69.07,66.67 82.60,105.43 96.14,130.10 109.67,140.67 123.21,151.24 136.74,161.81 150.28,108.95 163.81,130.10 177.35,112.48 190.88,84.29 204.42,116.00 217.95,94.86 231.49,123.05 245.02,151.24 258.56,73.71 272.09,116.00 285.63,154.76 299.16,73.71 312.70,70.19 326.23,116.00 339.77,91.33 353.30,87.81 366.84,108.95 380.37,77.24 393.91,98.38 407.44,56.10 420.98,56.10 434.51,77.24 448.05,98.38 461.58,77.24 475.12,105.43 488.65,112.48 502.19,77.24 515.72,140.67 529.26,119.52 542.79,119.52 556.33,130.10 569.86,42.00 583.40,123.05 596.93,126.57 610.47,112.48 624.00,140.67" fill="none" stroke="#60a5fa" stroke-width="2.5" stroke-linecap="round" stroke-linejoin="round"/>
  <text class="axis" x="42" y="212">2026-08-17</text><text class="axis" x="624" y="212" text-anchor="end">2026-09-29</text>
</svg>
