<svg xmlns="http://www.w3.org/2000/svg" width="640" height="220" viewBox="0 0 640 220" role="img" aria-label="Traffic history for AcTePuKc/Mods-of-Mistria-Installer">
  <title>Traffic history for AcTePuKc/Mods-of-Mistria-Installer</title>
  <style>
    .panel { fill: #18181b; stroke: #3f3f46; }
    .title { fill: #fafafa; }
    .axis { fill: #a1a1aa; font: 10px Inter,ui-sans-serif,system-ui,sans-serif; }
    .grid { stroke: #3f3f46; stroke-width: 1; opacity: .65; }
    @media (prefers-color-scheme: light) {
      .panel { fill: #ffffff; stroke: #d4d4d8; }
      .title { fill: #18181b; }
      .axis { fill: #71717a; }
      .grid { stroke: #d4d4d8; }
    }
  </style>
  <rect class="panel" x="0.5" y="0.5" width="639" height="219" rx="10" stroke-width="1"/>
  <text class="title" x="16" y="24" font-family="Inter,ui-sans-serif,system-ui,sans-serif" font-size="13" font-weight="600">AcTePuKc/Mods-of-Mistria-Installer traffic</text>
  <circle cx="486" cy="20" r="3" fill="#22c55e"/><text class="axis" x="494" y="23">clones</text>
  <circle cx="554" cy="20" r="3" fill="#60a5fa"/><text class="axis" x="562" y="23">views</text>
  <line class="grid" x1="42" y1="42.00" x2="624" y2="42.00"/><text class="axis" x="35" y="46.00" text-anchor="end">170</text><line class="grid" x1="42" y1="79.00" x2="624" y2="79.00"/><text class="axis" x="35" y="83.00" text-anchor="end">128</text><line class="grid" x1="42" y1="116.00" x2="624" y2="116.00"/><text class="axis" x="35" y="120.00" text-anchor="end">85</text><line class="grid" x1="42" y1="153.00" x2="624" y2="153.00"/><text class="axis" x="35" y="157.00" text-anchor="end">42</text><line class="grid" x1="42" y1="190.00" x2="624" y2="190.00"/><text class="axis" x="35" y="194.00" text-anchor="end">0</text>
  <polyline points="42.00,190.00 59.64,189.13 77.27,112.52 94.91,190.00 112.55,189.13 130.18,184.78 147.82,89.88 165.45,188.26 183.09,169.98 200.73,185.65 218.36,175.20 236.00,176.94 253.64,177.81 271.27,186.52 288.91,187.39 306.55,114.26 324.18,173.46 341.82,180.42 359.45,170.85 377.09,182.16 394.73,103.81 412.36,177.81 430.00,185.65 447.64,68.99 465.27,183.04 482.91,184.78 500.55,189.13 518.18,180.42 535.82,42.00 553.45,129.06 571.09,116.00 588.73,102.94 606.36,184.78 624.00,188.26" fill="none" stroke="#22c55e" stroke-width="2.5" stroke-linecap="round" stroke-linejoin="round"/>
  <polyline points="42.00,190.00 59.64,190.00 77.27,190.00 94.91,190.00 112.55,190.00 130.18,178.68 147.82,159.53 165.45,187.39 183.09,181.29 200.73,187.39 218.36,186.52 236.00,183.04 253.64,180.42 271.27,181.29 288.91,187.39 306.55,183.91 324.18,169.98 341.82,171.72 359.45,148.21 377.09,183.04 394.73,169.11 412.36,190.00 430.00,189.13 447.64,183.91 465.27,175.20 482.91,183.91 500.55,188.26 518.18,180.42 535.82,184.78 553.45,186.52 571.09,189.13 588.73,186.52 606.36,187.39 624.00,187.39" fill="none" stroke="#60a5fa" stroke-width="2.5" stroke-linecap="round" stroke-linejoin="round"/>
  <text class="axis" x="42" y="212">2026-08-18</text><text class="axis" x="624" y="212" text-anchor="end">2026-09-20</text>
</svg>
