<svg xmlns="http://www.w3.org/2000/svg" width="640" height="220" viewBox="0 0 640 220" role="img" aria-label="Traffic history for AcTePuKc/Mods-of-Mistria-Installer">
  <title>Traffic history for AcTePuKc/Mods-of-Mistria-Installer</title>
  <style>
    .panel { fill: #18181b; stroke: #3f3f46; }
    .title { fill: #fafafa; }
    .axis { fill: #a1a1aa; font: 10px Inter,ui-sans-serif,system-ui,sans-serif; }
    .grid { stroke: #3f3f46; stroke-width: 1; opacity: .65; }
    @media (prefers-color-scheme: light) {
      .panel { fill: #ffffff; stroke: #d4d4d8; }
      .title { fill: #18181b; }
      .axis { fill: #71717a; }
      .grid { stroke: #d4d4d8; }
    }
  </style>
  <rect class="panel" x="0.5" y="0.5" width="639" height="219" rx="10" stroke-width="1"/>
  <text class="title" x="16" y="24" font-family="Inter,ui-sans-serif,system-ui,sans-serif" font-size="13" font-weight="600">AcTePuKc/Mods-of-Mistria-Installer traffic</text>
  <circle cx="486" cy="20" r="3" fill="#22c55e"/><text class="axis" x="494" y="23">clones</text>
  <circle cx="554" cy="20" r="3" fill="#60a5fa"/><text class="axis" x="562" y="23">views</text>
  <line class="grid" x1="42" y1="42.00" x2="624" y2="42.00"/><text class="axis" x="35" y="46.00" text-anchor="end">170</text><line class="grid" x1="42" y1="79.00" x2="624" y2="79.00"/><text class="axis" x="35" y="83.00" text-anchor="end">128</text><line class="grid" x1="42" y1="116.00" x2="624" y2="116.00"/><text class="axis" x="35" y="120.00" text-anchor="end">85</text><line class="grid" x1="42" y1="153.00" x2="624" y2="153.00"/><text class="axis" x="35" y="157.00" text-anchor="end">42</text><line class="grid" x1="42" y1="190.00" x2="624" y2="190.00"/><text class="axis" x="35" y="194.00" text-anchor="end">0</text>
  <polyline points="42.00,190.00 59.12,189.13 76.24,112.52 93.35,190.00 110.47,189.13 127.59,184.78 144.71,89.88 161.82,188.26 178.94,169.98 196.06,185.65 213.18,175.20 230.29,176.94 247.41,177.81 264.53,186.52 281.65,187.39 298.76,114.26 315.88,173.46 333.00,180.42 350.12,170.85 367.24,182.16 384.35,103.81 401.47,177.81 418.59,185.65 435.71,68.99 452.82,183.04 469.94,184.78 487.06,189.13 504.18,180.42 521.29,42.00 538.41,129.06 555.53,116.00 572.65,102.94 589.76,184.78 606.88,188.26 624.00,183.04" fill="none" stroke="#22c55e" stroke-width="2.5" stroke-linecap="round" stroke-linejoin="round"/>
  <polyline points="42.00,190.00 59.12,190.00 76.24,190.00 93.35,190.00 110.47,190.00 127.59,178.68 144.71,159.53 161.82,187.39 178.94,181.29 196.06,187.39 213.18,186.52 230.29,183.04 247.41,180.42 264.53,181.29 281.65,187.39 298.76,183.91 315.88,169.98 333.00,171.72 350.12,148.21 367.24,183.04 384.35,169.11 401.47,190.00 418.59,189.13 435.71,183.91 452.82,175.20 469.94,183.91 487.06,188.26 504.18,180.42 521.29,184.78 538.41,186.52 555.53,189.13 572.65,186.52 589.76,187.39 606.88,187.39 624.00,189.13" fill="none" stroke="#60a5fa" stroke-width="2.5" stroke-linecap="round" stroke-linejoin="round"/>
  <text class="axis" x="42" y="212">2026-08-18</text><text class="axis" x="624" y="212" text-anchor="end">2026-09-21</text>
</svg>
