<svg xmlns="http://www.w3.org/2000/svg" width="640" height="220" viewBox="0 0 640 220" role="img" aria-label="Traffic history for AcTePuKc/Mods-of-Mistria-Installer">
  <title>Traffic history for AcTePuKc/Mods-of-Mistria-Installer</title>
  <style>
    .panel { fill: #18181b; stroke: #3f3f46; }
    .title { fill: #fafafa; }
    .axis { fill: #a1a1aa; font: 10px Inter,ui-sans-serif,system-ui,sans-serif; }
    .grid { stroke: #3f3f46; stroke-width: 1; opacity: .65; }
    @media (prefers-color-scheme: light) {
      .panel { fill: #ffffff; stroke: #d4d4d8; }
      .title { fill: #18181b; }
      .axis { fill: #71717a; }
      .grid { stroke: #d4d4d8; }
    }
  </style>
  <rect class="panel" x="0.5" y="0.5" width="639" height="219" rx="10" stroke-width="1"/>
  <text class="title" x="16" y="24" font-family="Inter,ui-sans-serif,system-ui,sans-serif" font-size="13" font-weight="600">AcTePuKc/Mods-of-Mistria-Installer traffic</text>
  <circle cx="486" cy="20" r="3" fill="#22c55e"/><text class="axis" x="494" y="23">clones</text>
  <circle cx="554" cy="20" r="3" fill="#60a5fa"/><text class="axis" x="562" y="23">views</text>
  <line class="grid" x1="42" y1="42.00" x2="624" y2="42.00"/><text class="axis" x="35" y="46.00" text-anchor="end">115</text><line class="grid" x1="42" y1="79.00" x2="624" y2="79.00"/><text class="axis" x="35" y="83.00" text-anchor="end">86</text><line class="grid" x1="42" y1="116.00" x2="624" y2="116.00"/><text class="axis" x="35" y="120.00" text-anchor="end">58</text><line class="grid" x1="42" y1="153.00" x2="624" y2="153.00"/><text class="axis" x="35" y="157.00" text-anchor="end">29</text><line class="grid" x1="42" y1="190.00" x2="624" y2="190.00"/><text class="axis" x="35" y="194.00" text-anchor="end">0</text>
  <polyline points="42.00,190.00 68.45,188.71 94.91,75.46 121.36,190.00 147.82,188.71 174.27,182.28 200.73,42.00 227.18,187.43 253.64,160.40 280.09,183.57 306.55,168.12 333.00,170.70 359.45,171.98 385.91,184.85 412.36,186.14 438.82,78.03 465.27,165.55 491.73,175.84 518.18,161.69 544.64,178.42 571.09,62.59 597.55,171.98 624.00,183.57" fill="none" stroke="#22c55e" stroke-width="2.5" stroke-linecap="round" stroke-linejoin="round"/>
  <polyline points="42.00,190.00 68.45,190.00 94.91,190.00 121.36,190.00 147.82,190.00 174.27,173.27 200.73,144.96 227.18,186.14 253.64,177.13 280.09,186.14 306.55,184.85 333.00,179.70 359.45,175.84 385.91,177.13 412.36,186.14 438.82,180.99 465.27,160.40 491.73,162.97 518.18,128.23 544.64,179.70 571.09,159.11 597.55,190.00 624.00,188.71" fill="none" stroke="#60a5fa" stroke-width="2.5" stroke-linecap="round" stroke-linejoin="round"/>
  <text class="axis" x="42" y="212">2026-08-18</text><text class="axis" x="624" y="212" text-anchor="end">2026-09-09</text>
</svg>
