<svg xmlns="http://www.w3.org/2000/svg" width="640" height="220" viewBox="0 0 640 220" role="img" aria-label="Traffic history for AcTePuKc/Mods-of-Mistria-Installer">
  <title>Traffic history for AcTePuKc/Mods-of-Mistria-Installer</title>
  <style>
    .panel { fill: #18181b; stroke: #3f3f46; }
    .title { fill: #fafafa; }
    .axis { fill: #a1a1aa; font: 10px Inter,ui-sans-serif,system-ui,sans-serif; }
    .grid { stroke: #3f3f46; stroke-width: 1; opacity: .65; }
    @media (prefers-color-scheme: light) {
      .panel { fill: #ffffff; stroke: #d4d4d8; }
      .title { fill: #18181b; }
      .axis { fill: #71717a; }
      .grid { stroke: #d4d4d8; }
    }
  </style>
  <rect class="panel" x="0.5" y="0.5" width="639" height="219" rx="10" stroke-width="1"/>
  <text class="title" x="16" y="24" font-family="Inter,ui-sans-serif,system-ui,sans-serif" font-size="13" font-weight="600">AcTePuKc/Mods-of-Mistria-Installer traffic</text>
  <circle cx="486" cy="20" r="3" fill="#22c55e"/><text class="axis" x="494" y="23">clones</text>
  <circle cx="554" cy="20" r="3" fill="#60a5fa"/><text class="axis" x="562" y="23">views</text>
  <line class="grid" x1="42" y1="42.00" x2="624" y2="42.00"/><text class="axis" x="35" y="46.00" text-anchor="end">115</text><line class="grid" x1="42" y1="79.00" x2="624" y2="79.00"/><text class="axis" x="35" y="83.00" text-anchor="end">86</text><line class="grid" x1="42" y1="116.00" x2="624" y2="116.00"/><text class="axis" x="35" y="120.00" text-anchor="end">58</text><line class="grid" x1="42" y1="153.00" x2="624" y2="153.00"/><text class="axis" x="35" y="157.00" text-anchor="end">29</text><line class="grid" x1="42" y1="190.00" x2="624" y2="190.00"/><text class="axis" x="35" y="194.00" text-anchor="end">0</text>
  <polyline points="42.00,190.00 78.38,188.71 114.75,75.46 151.12,190.00 187.50,188.71 223.88,182.28 260.25,42.00 296.62,187.43 333.00,160.40 369.38,183.57 405.75,168.12 442.12,170.70 478.50,171.98 514.88,184.85 551.25,186.14 587.62,78.03 624.00,165.55" fill="none" stroke="#22c55e" stroke-width="2.5" stroke-linecap="round" stroke-linejoin="round"/>
  <polyline points="42.00,190.00 78.38,190.00 114.75,190.00 151.12,190.00 187.50,190.00 223.88,173.27 260.25,144.96 296.62,186.14 333.00,177.13 369.38,186.14 405.75,184.85 442.12,179.70 478.50,175.84 514.88,177.13 551.25,186.14 587.62,180.99 624.00,160.40" fill="none" stroke="#60a5fa" stroke-width="2.5" stroke-linecap="round" stroke-linejoin="round"/>
  <text class="axis" x="42" y="212">2026-08-18</text><text class="axis" x="624" y="212" text-anchor="end">2026-09-03</text>
</svg>
