<svg xmlns="http://www.w3.org/2000/svg" width="640" height="220" viewBox="0 0 640 220" role="img" aria-label="Traffic history for AcTePuKc/icon-image-resizer">
  <title>Traffic history for AcTePuKc/icon-image-resizer</title>
  <style>
    .panel { fill: #18181b; stroke: #3f3f46; }
    .title { fill: #fafafa; }
    .axis { fill: #a1a1aa; font: 10px Inter,ui-sans-serif,system-ui,sans-serif; }
    .grid { stroke: #3f3f46; stroke-width: 1; opacity: .65; }
    @media (prefers-color-scheme: light) {
      .panel { fill: #ffffff; stroke: #d4d4d8; }
      .title { fill: #18181b; }
      .axis { fill: #71717a; }
      .grid { stroke: #d4d4d8; }
    }
  </style>
  <rect class="panel" x="0.5" y="0.5" width="639" height="219" rx="10" stroke-width="1"/>
  <text class="title" x="16" y="24" font-family="Inter,ui-sans-serif,system-ui,sans-serif" font-size="13" font-weight="600">AcTePuKc/icon-image-resizer traffic</text>
  <circle cx="486" cy="20" r="3" fill="#22c55e"/><text class="axis" x="494" y="23">clones</text>
  <circle cx="554" cy="20" r="3" fill="#60a5fa"/><text class="axis" x="562" y="23">views</text>
  <line class="grid" x1="42" y1="42.00" x2="624" y2="42.00"/><text class="axis" x="35" y="46.00" text-anchor="end">2</text><line class="grid" x1="42" y1="79.00" x2="624" y2="79.00"/><text class="axis" x="35" y="83.00" text-anchor="end">2</text><line class="grid" x1="42" y1="116.00" x2="624" y2="116.00"/><text class="axis" x="35" y="120.00" text-anchor="end">1</text><line class="grid" x1="42" y1="153.00" x2="624" y2="153.00"/><text class="axis" x="35" y="157.00" text-anchor="end">0</text><line class="grid" x1="42" y1="190.00" x2="624" y2="190.00"/><text class="axis" x="35" y="194.00" text-anchor="end">0</text>
  <polyline points="42.00,42.00 59.64,190.00 77.27,190.00 94.91,190.00 112.55,190.00 130.18,190.00 147.82,190.00 165.45,190.00 183.09,190.00 200.73,190.00 218.36,190.00 236.00,190.00 253.64,190.00 271.27,190.00 288.91,190.00 306.55,190.00 324.18,190.00 341.82,190.00 359.45,190.00 377.09,190.00 394.73,190.00 412.36,190.00 430.00,190.00 447.64,190.00 465.27,190.00 482.91,190.00 500.55,190.00 518.18,190.00 535.82,190.00 553.45,190.00 571.09,190.00 588.73,116.00 606.36,190.00 624.00,190.00" fill="none" stroke="#22c55e" stroke-width="2.5" stroke-linecap="round" stroke-linejoin="round"/>
  <polyline points="42.00,190.00 59.64,190.00 77.27,190.00 94.91,190.00 112.55,190.00 130.18,190.00 147.82,190.00 165.45,190.00 183.09,190.00 200.73,190.00 218.36,190.00 236.00,190.00 253.64,190.00 271.27,190.00 288.91,190.00 306.55,190.00 324.18,190.00 341.82,190.00 359.45,190.00 377.09,190.00 394.73,190.00 412.36,190.00 430.00,190.00 447.64,190.00 465.27,190.00 482.91,190.00 500.55,190.00 518.18,190.00 535.82,190.00 553.45,190.00 571.09,190.00 588.73,190.00 606.36,190.00 624.00,190.00" fill="none" stroke="#60a5fa" stroke-width="2.5" stroke-linecap="round" stroke-linejoin="round"/>
  <text class="axis" x="42" y="212">2026-08-04</text><text class="axis" x="624" y="212" text-anchor="end">2026-09-09</text>
</svg>
